<svg width="40" height="40" viewBox="0 0 40 40" fill="none" xmlns="http://www.w3.org/2000/svg">
<path d="M10.9375 9.53125V6.0525C10.9375 4.66797 12.0703 3.53516 13.4548 3.53516H26.5452C27.9298 3.53516 29.0625 4.66797 29.0625 6.0525V9.53125" stroke="#309689" stroke-width="2" stroke-miterlimit="22.9256" stroke-linecap="round" stroke-linejoin="round"/>
<path d="M37.2656 20.7812V34.1211C37.2656 35.4099 36.2107 36.4648 34.9219 36.4648H5.07812C3.7893 36.4648 2.73438 35.4102 2.73438 34.1211V20.8594" stroke="#309689" stroke-width="2" stroke-miterlimit="22.9256" stroke-linecap="round" stroke-linejoin="round"/>
<path d="M16.875 24.7266C8.61023 24.254 1.17188 21.8906 1.17188 17.6365V12.0898C1.17188 10.799 2.22469 9.74609 3.51562 9.74609H36.4844C37.7752 9.74609 38.8281 10.7991 38.8281 12.0898V17.6365C38.8281 21.9173 31.2958 24.2835 22.9688 24.7352" stroke="#309689" stroke-width="2" stroke-miterlimit="22.9256" stroke-linecap="round" stroke-linejoin="round"/>
<path fill-rule="evenodd" clip-rule="evenodd" d="M17.1094 22.4023H22.8906V25.0977C22.8906 26.5801 21.6777 27.793 20.1953 27.793H19.8047C18.3223 27.793 17.1094 26.5801 17.1094 25.0977V22.4023Z" stroke="#309689" stroke-width="2" stroke-miterlimit="22.9256" stroke-linecap="round" stroke-linejoin="round"/>
</svg>
