<svg width="36" height="36" viewBox="0 0 36 36" fill="none" xmlns="http://www.w3.org/2000/svg">
<mask id="mask0_25_6017" style="mask-type:luminance" maskUnits="userSpaceOnUse" x="0" y="0" width="36" height="36">
<path d="M0 0H36V36H0V0Z" fill="white"/>
</mask>
<g mask="url(#mask0_25_6017)">
<path d="M32.1695 31.4855C29.2548 26.7153 23.9993 23.5313 18 23.5313M18 23.5313C12.0006 23.5313 6.74515 26.7153 3.83041 31.4855M18 23.5313C22.5822 23.5313 26.2969 19.8166 26.2969 15.2344C26.2969 10.6521 22.5822 6.93752 18 6.93752C13.4177 6.93752 9.70313 10.6521 9.70313 15.2344C9.70313 19.8166 13.4177 23.5313 18 23.5313ZM4.46618 3.87752L3.87752 4.46625C2.29514 6.04856 1.40625 8.19464 1.40625 10.4324V25.5676C1.40625 27.8054 2.29514 29.9514 3.87752 31.5338L4.46618 32.1225C6.04849 33.7048 8.19464 34.5938 10.4324 34.5938H25.5675C27.8053 34.5938 29.9514 33.7048 31.5338 32.1225L32.1225 31.5338C33.7048 29.9514 34.5938 27.8054 34.5938 25.5676V10.4324C34.5938 8.19464 33.7048 6.04856 32.1225 4.46625L31.5338 3.87752C29.9514 2.29521 27.8053 1.40625 25.5675 1.40625H10.4324C8.19464 1.40625 6.04849 2.29521 4.46618 3.87752Z" stroke="#309689" stroke-width="2" stroke-miterlimit="10" stroke-linecap="round" stroke-linejoin="round"/>
</g>
</svg>
