<svg width="40" height="40" viewBox="0 0 40 40" fill="none" xmlns="http://www.w3.org/2000/svg">
<path d="M13.9428 28.0584C15.2423 28.0584 16.2957 27.005 16.2957 25.7055C16.2957 24.406 15.2423 23.3525 13.9428 23.3525C12.6433 23.3525 11.5898 24.406 11.5898 25.7055C11.5898 27.005 12.6433 28.0584 13.9428 28.0584Z" stroke="#309689" stroke-width="2" stroke-miterlimit="10"/>
<path d="M13.9416 32.7651C17.8401 32.7651 21.0004 29.6047 21.0004 25.7063C21.0004 21.8078 17.8401 18.6475 13.9416 18.6475C10.0431 18.6475 6.88281 21.8078 6.88281 25.7063C6.88281 29.6047 10.0431 32.7651 13.9416 32.7651Z" stroke="#309689" stroke-width="2" stroke-miterlimit="10"/>
<path d="M1 25.7062C1 18.559 6.79395 12.7651 13.9412 12.7651C18.4842 12.7651 22.4804 15.1061 24.7894 18.6474C25.4912 19.7237 26.037 20.9108 26.3952 22.1768L38.1588 10.4131" stroke="#309689" stroke-width="2" stroke-miterlimit="10"/>
<path d="M34.8567 4.79046C29.8028 -0.263488 21.609 -0.263488 16.5551 4.79046L4.7904 16.5551C-0.263468 21.6089 -0.263468 29.8028 4.7904 34.8566C9.84428 39.9106 18.0381 39.9106 23.092 34.8566L34.8567 23.0919C39.9106 18.0382 39.9106 9.84426 34.8567 4.79046Z" stroke="#309689" stroke-width="2" stroke-miterlimit="10"/>
</svg>
