<svg width="140" height="60" viewBox="0 0 140 60" fill="none" xmlns="http://www.w3.org/2000/svg">
<g clip-path="url(#clip0_25_5929)">
<path fill-rule="evenodd" clip-rule="evenodd" d="M139.117 38.2042C133.295 48.0758 124.074 45.2114 121.304 42.9686C120.126 43.7683 118.059 45.5212 115.303 45.3188C109.434 44.888 107.332 36.5008 107.332 36.5008C107.374 36.5344 105.584 37.1187 104.616 37.1082C104.604 39.5678 102.478 45.4433 96.7399 45.3681C90.301 45.2841 88.992 35.6914 88.992 35.6914C88.992 35.6914 88.3513 36.5811 85.915 37.4674C86.0376 35.5777 85.948 45.0805 78.2307 45.2202C72.1298 45.3307 70.4829 35.5435 70.4829 35.5435C70.4829 35.5435 69.4245 36.6429 67.3734 37.0242C67.5037 35.1038 67.2918 45.2524 59.5736 45.2202C54.3578 45.1985 52.5754 39.1912 52.714 38.3574C52.8909 37.2948 50.9513 45.3696 45.8849 45.2438C43.7941 45.1824 42.2354 43.6686 41.2573 41.6505C39.948 43.1487 38.047 45.2438 35.9145 45.2438C32.0865 45.2438 30.3989 42.0421 30.6847 32.8974C30.7091 31.8128 30.6308 31.3862 29.5526 31.2239C28.9054 31.116 28.2427 30.9115 27.5414 30.8037C27.3167 31.5538 25.4104 44.9998 18.8553 45.255C16.6562 45.3406 15.4537 43.4356 14.4662 42.0217C12.9524 44.0243 10.9542 45.3188 8.1075 45.3188C3.28543 45.3188 0 41.4206 0 36.6119C0 31.8031 3.28543 27.9053 8.1075 27.9053C8.96009 27.9053 9.19943 28.0275 9.97832 28.2547C8.3765 13.6706 12.1594 11.3913 15.4686 11.3913C18.6456 11.3913 24.0731 18.765 16.4361 37.4688C18.1316 43.0477 21.787 42.7321 23.5435 31.2478C23.901 28.9133 22.9451 25.7632 24.4319 25.3235C27.1498 24.52 27.4382 26.9308 28.7126 27.3325C30.0601 27.757 30.8466 27.7155 32.1402 27.9857C34.3506 28.4173 35.2132 29.6048 34.9439 32.2495C34.6205 35.5959 34.0547 40.4665 35.7797 41.0601C37.0236 41.4913 39.2948 38.9117 39.6933 37.5002C40.0917 36.0887 40.1749 35.6056 40.2103 34.5703C40.2642 32.3577 40.3319 30.7357 40.7092 29.0624C40.8707 28.4148 41.0548 27.986 41.7874 27.9567C42.3902 27.9414 43.4925 27.7598 43.9778 28.1375C44.6246 28.6235 44.5438 29.1167 44.4695 30.4145C43.7173 48.9191 49.507 39.6815 51.2332 32.2849C50.6185 23.9211 51.0406 11.5444 56.2817 11.3369C59.0075 11.2289 60.2125 13.4126 60.3451 15.0425C60.72 19.6459 58.6199 27.2715 55.858 32.3997C54.2795 42.8634 62.7596 44.9323 64.1157 36.5802C61.897 35.5253 59.4992 31.2555 61.4504 29.1747C62.5453 28.0069 67.1028 29.6845 67.1774 33.3435C69.4129 32.7456 69.7114 31.4834 69.7424 31.6925C69.1279 23.3287 69.6978 11.5445 74.9393 11.337C77.6648 11.229 78.8696 13.4127 79.0022 15.0426C79.3771 19.646 77.277 27.2716 74.5155 32.3998C72.9368 42.8634 81.4171 44.9325 82.7728 36.5804C81.1301 36.2634 77.6626 31.7219 79.6633 29.1748C80.7325 27.8136 85.2733 30.6442 85.7817 33.4646C87.9292 32.8569 88.2209 31.6348 88.2517 31.8405C87.637 23.477 88.207 11.6928 93.4485 11.4852C96.1739 11.3772 97.3788 13.5609 97.5113 15.1908C97.8863 19.7943 95.7862 27.42 93.0243 32.5482C91.4459 43.0119 99.926 45.0805 101.282 36.7283C99.0248 36.3525 95.8166 31.5572 98.3987 29.1041C99.4303 28.1239 103.372 30.6683 104.295 33.571C105.577 33.5217 106.375 33.0795 106.546 33.0349C104.499 23.2163 106.023 11.4355 111.661 11.3371C114.709 11.284 117.688 12.9847 116.381 22.3257C115.132 31.2382 110.645 34.9784 110.656 35.0356C110.917 36.1034 113.219 45.039 119.017 40.3242C118.717 39.6446 118.417 38.9503 118.249 38.1092C117.288 33.2096 119.175 27.6755 124.306 26.7811C127.245 26.2686 130.015 27.6998 130.452 30.9262C131.173 36.2057 126.405 40.0291 124.593 40.8585C123.781 40.3972 131.953 45.6383 136.803 35.135C137.084 34.5353 137.423 34.5861 137.862 34.8952C138.172 35.1135 139.939 36.7874 139.117 38.2042ZM11.6151 35.3147C11.3684 34.5769 10.8619 32.9513 10.6829 32.2469C9.69659 31.3893 8.99263 31.25 7.72668 31.25C4.91333 31.25 3.25745 33.8511 3.25745 36.6559C3.25745 39.4606 5.06141 42.0621 7.87477 42.0621C10.3129 42.0621 12.1685 40.4044 12.7346 38.0577C12.3384 37.1429 11.9453 36.3021 11.6151 35.3147ZM15.3996 15.2518C13.4228 15.2518 12.7522 19.9675 12.8824 23.9905C12.9975 27.5472 13.9913 30.6785 14.5069 32.0816C14.6378 32.2574 14.6135 32.143 14.7304 32.3294C18.1627 24.809 16.7391 15.2518 15.3996 15.2518ZM56.564 15.3999C54.0091 15.1069 54.0256 25.7501 54.3428 28.1375C55.6697 26.0148 57.9748 15.9715 56.564 15.3999ZM75.2211 15.3999C72.6662 15.1069 72.6827 25.7501 73 28.1375C74.3268 26.0148 76.6321 15.9715 75.2211 15.3999ZM93.7305 15.548C91.1753 15.255 91.1918 25.8983 91.5092 28.2858C92.836 26.1629 95.1412 16.1195 93.7305 15.548ZM111.943 14.7769C107.963 15.5763 108.89 28.8487 109.494 31.1765C114.183 24.7362 114.28 14.535 111.943 14.7769ZM126.862 31.3629C126.66 30.5166 125.648 30.0644 124.949 30.1758C122.95 30.4488 121.012 32.9381 121.762 36.728C121.929 37.572 122.347 38.349 122.341 38.3232C126.814 35.3222 127.194 32.9574 126.862 31.3629ZM42.5709 25.0272C41.9997 25.0273 41.4412 24.858 40.9662 24.5407C40.4912 24.2234 40.1209 23.7724 39.9021 23.2446C39.6834 22.7169 39.6262 22.1361 39.7377 21.5758C39.849 21.0155 40.1242 20.5009 40.528 20.0969C40.9319 19.6929 41.4465 19.4178 42.0068 19.3063C42.5671 19.1949 43.1479 19.2521 43.6757 19.4707C44.2035 19.6893 44.6545 20.0595 44.9719 20.5345C45.2892 21.0095 45.4586 21.568 45.4586 22.1392C45.4586 22.5185 45.384 22.894 45.2388 23.2444C45.0938 23.5947 44.8811 23.9131 44.6129 24.1813C44.3447 24.4495 44.0264 24.6622 43.6761 24.8073C43.3257 24.9525 42.9502 25.0272 42.5709 25.0272Z" fill="#ADB5BD"/>
</g>
<defs>
<clipPath id="clip0_25_5929">
<rect width="140" height="60" fill="white"/>
</clipPath>
</defs>
</svg>
