<svg width="159" height="60" viewBox="0 0 159 60" fill="none" xmlns="http://www.w3.org/2000/svg">
<g clip-path="url(#clip0_25_5930)">
<path fill-rule="evenodd" clip-rule="evenodd" d="M153.696 39.9755C153.791 41.0624 154.66 42.446 156.168 42.446H157.048C157.391 42.446 157.67 42.166 157.67 41.8241V22.4419H157.666C157.649 22.1154 157.379 21.8539 157.048 21.8539H154.318C153.987 21.8539 153.717 22.1154 153.7 22.4419H153.696V24.0168C152.023 21.9545 149.385 21.0984 146.74 21.0984C140.727 21.0984 135.853 25.9765 135.853 31.9943C135.853 38.0124 140.727 42.8906 146.74 42.8906C149.385 42.8906 152.268 41.864 153.696 39.9731V39.9755ZM146.75 39.0772C142.926 39.0772 139.826 35.9063 139.826 31.9943C139.826 28.0829 142.926 24.912 146.75 24.912C150.575 24.912 153.675 28.0829 153.675 31.9943C153.675 35.9063 150.575 39.0772 146.75 39.0772Z" fill="#ADB5BD"/>
<path fill-rule="evenodd" clip-rule="evenodd" d="M132.399 30.6126C132.399 24.9591 128.836 21.1451 123.153 21.1451C120.44 21.1451 118.216 22.7151 117.43 24.0637C117.261 23.0092 116.701 21.9008 114.966 21.9008H114.082C113.74 21.9008 113.461 22.181 113.461 22.5229V40.024C113.461 40.0246 113.461 40.0258 113.461 40.0267V41.9067H113.464C113.482 42.2327 113.752 42.4945 114.082 42.4945H116.813C116.855 42.4945 116.896 42.4895 116.936 42.4818C116.954 42.4783 116.97 42.4712 116.988 42.4662C117.008 42.4599 117.03 42.4551 117.049 42.4472C117.073 42.4371 117.095 42.4236 117.118 42.4109C117.129 42.4041 117.141 42.3994 117.151 42.3923C117.178 42.3747 117.203 42.3535 117.228 42.332C117.232 42.328 117.236 42.3253 117.24 42.3216C117.267 42.2953 117.292 42.2663 117.314 42.2362C117.382 42.1423 117.424 42.0287 117.431 41.9067H117.435V30.4571C117.435 27.4208 119.894 24.9591 122.929 24.9591C125.963 24.9591 128.423 27.4208 128.423 30.4571L128.425 40.0274L128.426 40.024C128.426 40.0325 128.427 40.0412 128.427 40.0503V41.9067H128.431C128.449 42.2327 128.719 42.4945 129.049 42.4945H131.78C131.822 42.4945 131.862 42.4895 131.902 42.4818C131.918 42.4788 131.933 42.4723 131.949 42.4679C131.971 42.4614 131.994 42.4558 132.016 42.4472C132.038 42.4379 132.058 42.425 132.079 42.4131C132.092 42.4058 132.106 42.4006 132.118 42.3923C132.143 42.3757 132.167 42.3557 132.189 42.3359C132.195 42.3305 132.201 42.3266 132.207 42.3212C132.233 42.2962 132.256 42.2692 132.277 42.2409C132.278 42.2388 132.28 42.2371 132.282 42.2349C132.349 42.1419 132.39 42.0295 132.397 41.9082C132.397 41.9074 132.398 41.9067 132.398 41.9067H132.401L132.399 30.6126Z" fill="#ADB5BD"/>
<path fill-rule="evenodd" clip-rule="evenodd" d="M103.96 39.9754C104.055 41.0624 104.925 42.4459 106.431 42.4459H107.312C107.654 42.4459 107.934 42.1659 107.934 41.824V22.4419H107.93C107.912 22.1154 107.642 21.8539 107.312 21.8539H104.582C104.251 21.8539 103.982 22.1154 103.963 22.4419H103.96V24.0168C102.287 21.9545 99.6487 21.0984 97.0034 21.0984C90.9906 21.0984 86.1165 25.9765 86.1165 31.9943C86.1165 38.0124 90.9906 42.8906 97.0034 42.8906C99.6487 42.8906 102.532 41.8641 103.96 39.973L103.96 39.9754ZM97.014 39.0772C93.1902 39.0772 90.0899 35.9064 90.0899 31.9943C90.0899 28.0829 93.1902 24.912 97.014 24.912C100.838 24.912 103.938 28.0829 103.938 31.9943C103.938 35.9064 100.838 39.0772 97.014 39.0772Z" fill="#ADB5BD"/>
<path fill-rule="evenodd" clip-rule="evenodd" d="M69.9675 37.1996C71.7905 38.4635 73.7804 39.0774 75.6926 39.0774C77.5143 39.0774 79.3977 38.1322 79.3977 36.4871C79.3977 34.2908 75.2939 33.949 72.7155 33.072C70.1365 32.195 67.9153 30.382 67.9153 27.4461C67.9153 22.9536 71.9152 21.0981 75.6484 21.0981C78.0138 21.0981 80.4543 21.8787 82.0365 22.9969C82.5814 23.4101 82.2496 23.8846 82.2496 23.8846L80.7392 26.0434C80.5695 26.2865 80.2726 26.4966 79.8466 26.2334C79.4205 25.9704 77.926 24.9118 75.6484 24.9118C73.3706 24.9118 71.9986 25.9645 71.9986 27.2693C71.9986 28.8339 73.7818 29.326 75.8705 29.8593C79.5104 30.8412 83.481 32.0214 83.481 36.4871C83.481 40.4453 79.7814 42.8915 75.6926 42.8915C72.5942 42.8915 69.9561 42.0075 67.7436 40.3827C67.2827 39.921 67.6045 39.4923 67.6045 39.4923L69.1075 37.3445C69.4134 36.9429 69.7989 37.0829 69.9675 37.1996Z" fill="#ADB5BD"/>
<path fill-rule="evenodd" clip-rule="evenodd" d="M59.4691 39.9754C59.5646 41.0624 60.434 42.4459 61.9401 42.4459H62.8215C63.1631 42.4459 63.4431 42.1659 63.4431 41.824V22.4419H63.4393C63.4214 22.1154 63.1516 21.8539 62.8215 21.8539H60.0907C59.7604 21.8539 59.4907 22.1154 59.4724 22.4419H59.4691V24.0168C57.7959 21.9545 55.158 21.0984 52.5127 21.0984C46.4999 21.0984 41.6255 25.9765 41.6255 31.9943C41.6255 38.0124 46.4999 42.8906 52.5127 42.8906C55.158 42.8906 58.0408 41.8641 59.4687 39.973L59.4691 39.9754ZM52.5234 39.0772C48.6992 39.0772 45.5991 35.9064 45.5991 31.9943C45.5991 28.0829 48.6992 24.912 52.5234 24.912C56.3474 24.912 59.4472 28.0829 59.4472 31.9943C59.4472 35.9064 56.3474 39.0772 52.5234 39.0772Z" fill="#ADB5BD"/>
<path fill-rule="evenodd" clip-rule="evenodd" d="M26.3619 32.7351C22.3156 32.7351 19.0352 36.0153 19.0352 40.0621C19.0352 44.1085 22.3156 47.3888 26.3619 47.3888C30.4084 47.3888 33.6886 44.1085 33.6886 40.0621C33.6886 36.0153 30.4084 32.7351 26.3619 32.7351ZM7.32668 32.7358C3.2803 32.7358 0 36.0153 0 40.0621C0 44.1085 3.2803 47.3888 7.32668 47.3888C11.3732 47.3888 14.6537 44.1085 14.6537 40.0621C14.6537 36.0153 11.3732 32.7358 7.32668 32.7358ZM24.1709 23.5765C24.1709 27.6232 20.8908 30.9038 16.8443 30.9038C12.7978 30.9038 9.51767 27.6232 9.51767 23.5765C9.51767 19.5306 12.7978 16.25 16.8443 16.25C20.8908 16.25 24.1709 19.5306 24.1709 23.5765Z" fill="#ADB5BD"/>
</g>
<defs>
<clipPath id="clip0_25_5930">
<rect width="158.75" height="60" fill="white"/>
</clipPath>
</defs>
</svg>
