<svg width="20" height="20" viewBox="0 0 20 20" fill="none" xmlns="http://www.w3.org/2000/svg">
<path d="M9.02987 0.613823C9.37258 -0.204416 10.5319 -0.204417 10.8746 0.613822L12.9057 5.46327C13.0499 5.8075 13.3738 6.04281 13.7457 6.07355L18.9855 6.50671C19.8696 6.5798 20.2278 7.68237 19.5555 8.26116L15.5711 11.6914C15.2882 11.9349 15.1645 12.3157 15.2502 12.6789L16.4575 17.7961C16.6611 18.6595 15.7232 19.3409 14.965 18.8804L10.4714 16.1509C10.1524 15.9572 9.75208 15.9572 9.43311 16.1509L4.93944 18.8804C4.18124 19.3409 3.24334 18.6595 3.44703 17.7961L4.65424 12.6789C4.73994 12.3157 4.61623 11.9349 4.3334 11.6914L0.348951 8.26115C-0.323337 7.68237 0.0349112 6.5798 0.919005 6.50671L6.15876 6.07355C6.5307 6.04281 6.85457 5.80751 6.99874 5.46327L9.02987 0.613823Z" fill="#FFC107"/>
</svg>
